# xmcd
#
# Track frame offsets:
#	150
#	15682
#	30138
#	47098
#	72137
#	86546
#	107562
#	128392
#	161146
#	178208
#	187491
#	210876
#
# Disc length: 2983 seconds
#
# Revision: 1
# Processed by: cddbd v1.5PL3 Copyright (c) Steve Scherf et al.
# Submitted via: EasyCDDAExtractor 6.5.0.3
#
DISCID=960ba50c
DTITLE=Racky Thomas - Last of the Big Spenders
DYEAR=1998
DGENRE=Blues
TTITLE0=Sweet Dough Baker
TTITLE1=Don't Treat Me Like That
TTITLE2=Fire As Wine
TTITLE3=Standing On a Corner
TTITLE4=Rack 'em Up
TTITLE5=Last of the Big Spenders
TTITLE6=These Lowdown Blues
TTITLE7=Just a Fool
TTITLE8=Tears Fell Down Like Rain
TTITLE9=Mark's Boogie
TTITLE10=My Baby's Gone
TTITLE11=Death Letter Blues
EXTD=
EXTT0=
EXTT1=
EXTT2=
EXTT3=
EXTT4=
EXTT5=
EXTT6=
EXTT7=
EXTT8=
EXTT9=
EXTT10=
EXTT11=
PLAYORDER=
